<mxfile host="app.diagrams.net" modified="2023-05-04T11:32:33.838Z" agent="Mozilla/5.0 (Windows NT 10.0; Win64; x64) AppleWebKit/537.36 (KHTML, like Gecko) Chrome/112.0.0.0 Safari/537.36" version="21.2.7" etag="73cQNv5zQA3oxF6BS_e4" type="github">
  <diagram name="페이지-1" id="Z59Kq4UUA3qXqIwyeTLR">
    <mxGraphModel>
      <root>
        <mxCell id="0" />
        <mxCell id="1" parent="0" />
      </root>
    </mxGraphModel>
  </diagram>
</mxfile>
